<svg height="526" width="720" xmlns="http://www.w3.org/2000/svg">
<rect height="526" fill="#555" width="720"></rect>
<text fill="#7f7" font-family="Courier New" font-size="12" xml:space="preserve">
<tspan x="10" y="26">4 megabytes installed</tspan>
<tspan x="10" y="42"></tspan>
<tspan x="10" y="58">node_modules</tspan>
<tspan x="10" y="74">└─┬ tern@0.21.0 </tspan>
<tspan x="10" y="90">  ├── acorn@4.0.11 </tspan>
<tspan x="10" y="106">  ├─┬ enhanced-resolve@2.3.0 </tspan>
<tspan x="10" y="122">  │ ├── graceful-fs@4.1.11 </tspan>
<tspan x="10" y="138">  │ ├─┬ memory-fs@0.3.0 </tspan>
<tspan x="10" y="154">  │ │ ├─┬ errno@0.1.4 </tspan>
<tspan x="10" y="170">  │ │ │ └── prr@0.0.0 </tspan>
<tspan x="10" y="186">  │ │ └─┬ readable-stream@2.2.9 </tspan>
<tspan x="10" y="202">  │ │   ├── buffer-shims@1.0.0 </tspan>
<tspan x="10" y="218">  │ │   ├── core-util-is@1.0.2 </tspan>
<tspan x="10" y="234">  │ │   ├── isarray@1.0.0 </tspan>
<tspan x="10" y="250">  │ │   ├── process-nextick-args@1.0.7 </tspan>
<tspan x="10" y="266">  │ │   ├── string_decoder@1.0.0 </tspan>
<tspan x="10" y="282">  │ │   └── util-deprecate@1.0.2 </tspan>
<tspan x="10" y="298">  │ ├── object-assign@4.1.1 </tspan>
<tspan x="10" y="314">  │ └── tapable@0.2.6 </tspan>
<tspan x="10" y="330">  ├─┬ glob@7.1.1 </tspan>
<tspan x="10" y="346">  │ ├── fs.realpath@1.0.0 </tspan>
<tspan x="10" y="362">  │ ├─┬ inflight@1.0.6 </tspan>
<tspan x="10" y="378">  │ │ └── wrappy@1.0.2 </tspan>
<tspan x="10" y="394">  │ ├── inherits@2.0.3 </tspan>
<tspan x="10" y="410">  │ ├── once@1.4.0 </tspan>
<tspan x="10" y="426">  │ └── path-is-absolute@1.0.1 </tspan>
<tspan x="10" y="442">  ├─┬ minimatch@3.0.3 </tspan>
<tspan x="10" y="458">  │ └─┬ brace-expansion@1.1.7 </tspan>
<tspan x="10" y="474">  │   ├── balanced-match@0.4.2 </tspan>
<tspan x="10" y="490">  │   └── concat-map@0.0.1 </tspan>
<tspan x="10" y="506">  └── resolve-from@2.0.0</tspan>
</text>
</svg>
